<svg xmlns="http://www.w3.org/2000/svg" width="85.687" height="85.719" viewBox="0 0 85.687 85.719">
  <metadata><?xpacket begin="﻿" id="W5M0MpCehiHzreSzNTczkc9d"?>
<x:xmpmeta xmlns:x="adobe:ns:meta/" x:xmptk="Adobe XMP Core 5.6-c138 79.159824, 2016/09/14-01:09:01        ">
   <rdf:RDF xmlns:rdf="http://www.w3.org/1999/02/22-rdf-syntax-ns#">
      <rdf:Description rdf:about=""/>
   </rdf:RDF>
</x:xmpmeta>
                                                                                                    
                                                                                                    
                                                                                                    
                                                                                                    
                                                                                                    
                                                                                                    
                                                                                                    
                                                                                                    
                                                                                                    
                                                                                                    
                                                                                                    
                                                                                                    
                                                                                                    
                                                                                                    
                                                                                                    
                                                                                                    
                                                                                                    
                                                                                                    
                                                                                                    
                                                                                                    
                           
<?xpacket end="w"?></metadata>
<defs>
    <style>
      .cls-1 {
        fill: #333;
        fill-rule: evenodd;
      }
    </style>
  </defs>
  <path id="be" class="cls-1" d="M402.931,257.561a16.1,16.1,0,0,0-16.072,16.072V327.2a16.1,16.1,0,0,0,16.072,16.072H456.5A16.1,16.1,0,0,0,472.574,327.2V273.633A16.1,16.1,0,0,0,456.5,257.561H402.931Zm17.187,20.955a14.839,14.839,0,0,1,4.409,1.646,7.706,7.706,0,0,1,3.153,3.376,12.087,12.087,0,0,1,1.088,5.385q0,6.25-5.971,9.152,7.98,2.343,7.98,11.16,0,6.308-4.465,9.515a18.334,18.334,0,0,1-10.993,3.209H394V278.041h20.7A27.52,27.52,0,0,1,420.118,278.516Zm-0.725,12.025q0-5.022-6.641-5.022h-9.1v10.268h9.822q5.914,0,5.915-5.246h0Zm1.73,18.136q0-6.3-6.92-6.305H403.656v12.109H413.98q7.143,0,7.143-5.8h0Zm33.342,6.474a5.275,5.275,0,0,0,2.651-3.014h7.7q-3.461,10.661-14.9,10.659-7.477,0-11.886-4.576t-4.408-12.11a16.774,16.774,0,0,1,4.576-12.053,15.479,15.479,0,0,1,11.718-4.8q7.2,0,11.356,4.938a18.457,18.457,0,0,1,4.158,12.3q0,1.118-.056,1.674H442.44a8.337,8.337,0,0,0,2.009,5.971,7.612,7.612,0,0,0,5.8,2.121A8.658,8.658,0,0,0,454.465,315.151Zm-9.849-17.467a7.246,7.246,0,0,0-2.176,4.967h14.174q-0.615-6.808-6.92-6.808A7.1,7.1,0,0,0,444.616,297.684ZM440.654,285.3h17.8V281h-17.8v4.3Z" transform="translate(-386.875 -257.562)"/>
</svg>
