<svg xmlns="http://www.w3.org/2000/svg" width="85.687" height="85.719" viewBox="0 0 85.687 85.719">
  <metadata><?xpacket begin="﻿" id="W5M0MpCehiHzreSzNTczkc9d"?>
<x:xmpmeta xmlns:x="adobe:ns:meta/" x:xmptk="Adobe XMP Core 5.6-c138 79.159824, 2016/09/14-01:09:01        ">
   <rdf:RDF xmlns:rdf="http://www.w3.org/1999/02/22-rdf-syntax-ns#">
      <rdf:Description rdf:about=""/>
   </rdf:RDF>
</x:xmpmeta>
                                                                                                    
                                                                                                    
                                                                                                    
                                                                                                    
                                                                                                    
                                                                                                    
                                                                                                    
                                                                                                    
                                                                                                    
                                                                                                    
                                                                                                    
                                                                                                    
                                                                                                    
                                                                                                    
                                                                                                    
                                                                                                    
                                                                                                    
                                                                                                    
                                                                                                    
                                                                                                    
                           
<?xpacket end="w"?></metadata>
<defs>
    <style>
      .cls-1 {
        fill: #333;
        fill-rule: evenodd;
      }
    </style>
  </defs>
  <path id="dribbble" class="cls-1" d="M667.717,337.026a35.914,35.914,0,0,1-23.326-8.371l0.837,0.614a29.886,29.886,0,0,1,5.747-8.259,48.43,48.43,0,0,1,7.311-6.389,71.259,71.259,0,0,1,7.645-4.576q4.128-2.148,5.636-2.735t2.4-.92l0.111-.056h0.112A150.851,150.851,0,0,1,682,334.124a36.587,36.587,0,0,1-14.285,2.9h0Zm3.236-36.524q-0.5.141-.725,0.2l-2.065.725a42.9,42.9,0,0,0-5.553,2.679q-3.431,1.9-7.282,4.52a49.944,49.944,0,0,0-7.952,6.947,46.845,46.845,0,0,0-6.892,9.291,36.617,36.617,0,0,1-6.919-11.244,35.884,35.884,0,0,1-2.456-13.2,9.042,9.042,0,0,1,.056-1.172,130.544,130.544,0,0,0,37.556-5.19q1.785,3.46,2.958,6.194A4.3,4.3,0,0,1,670.953,300.5Zm-39.062-7.617a36.73,36.73,0,0,1,20.2-25.558,192.258,192.258,0,0,1,13.616,21.094,132.391,132.391,0,0,1-33.817,4.464h0ZM698.52,320.2A36.571,36.571,0,0,1,688.2,330.776a157.236,157.236,0,0,0-7.142-26.172,52.733,52.733,0,0,1,22.823,1.618A36.091,36.091,0,0,1,698.52,320.2Zm-39.676-55.274a0.161,0.161,0,0,1,.111-0.055,0.161,0.161,0,0,0-.111.055h0Zm32.338,9.013a24.325,24.325,0,0,1-2.093,2.26,35.991,35.991,0,0,1-3.655,3.181,49.016,49.016,0,0,1-5.385,3.431,51.777,51.777,0,0,1-7.254,3.377,159.425,159.425,0,0,0-13.728-21.317,36.9,36.9,0,0,1,8.65-1.061,35.276,35.276,0,0,1,24.162,9.152Zm12.584,25.976c-0.373-.074-0.837-0.158-1.395-0.251l-2.037-.335q-1.2-.195-2.679-0.362t-3.153-.307q-1.674-.14-3.571-0.223t-3.851-.084q-1.953,0-4.1.111t-4.158.391a6.739,6.739,0,0,1-.418-0.921q-0.252-.641-0.363-0.976-1.061-2.344-2.455-5.3a61.624,61.624,0,0,0,12.918-7.226,46.034,46.034,0,0,0,3.962-3.376,31.831,31.831,0,0,0,2.428-2.484q0.556-.7,1.06-1.367l0.056-.056a35.816,35.816,0,0,1,8.315,22.88Zm-14.537-36.607a43.13,43.13,0,0,0-43.025,0,42.67,42.67,0,0,0-15.6,15.6,43.13,43.13,0,0,0,0,43.025,42.655,42.655,0,0,0,15.6,15.6,43.13,43.13,0,0,0,43.025,0,42.67,42.67,0,0,0,15.6-15.6,43.13,43.13,0,0,0,0-43.025A42.685,42.685,0,0,0,689.229,263.309Z" transform="translate(-624.875 -257.562)"/>
</svg>
