<svg xmlns="http://www.w3.org/2000/svg" width="85.687" height="85.719" viewBox="0 0 85.687 85.719">
  <metadata><?xpacket begin="﻿" id="W5M0MpCehiHzreSzNTczkc9d"?>
<x:xmpmeta xmlns:x="adobe:ns:meta/" x:xmptk="Adobe XMP Core 5.6-c138 79.159824, 2016/09/14-01:09:01        ">
   <rdf:RDF xmlns:rdf="http://www.w3.org/1999/02/22-rdf-syntax-ns#">
      <rdf:Description rdf:about=""/>
   </rdf:RDF>
</x:xmpmeta>
                                                                                                    
                                                                                                    
                                                                                                    
                                                                                                    
                                                                                                    
                                                                                                    
                                                                                                    
                                                                                                    
                                                                                                    
                                                                                                    
                                                                                                    
                                                                                                    
                                                                                                    
                                                                                                    
                                                                                                    
                                                                                                    
                                                                                                    
                                                                                                    
                                                                                                    
                                                                                                    
                           
<?xpacket end="w"?></metadata>
<defs>
    <style>
      .cls-1 {
        fill: #333;
        fill-rule: evenodd;
      }
    </style>
  </defs>
  <path id="f" class="cls-1" d="M120.931,257.561a16.1,16.1,0,0,0-16.072,16.072V327.2a16.1,16.1,0,0,0,16.072,16.072h29.687v-33.2h-11.16V297.126h11.16v-9.542q0-8.148,4.548-12.612t12.138-4.464a74.8,74.8,0,0,1,9.933.5v11.551l-6.808.056q-3.8,0-5.106,1.563a7.148,7.148,0,0,0-1.312,4.687v8.259H176.79l-1.674,12.947H164.011v33.2H174.5A16.1,16.1,0,0,0,190.574,327.2V273.633A16.1,16.1,0,0,0,174.5,257.561H120.931Z" transform="translate(-104.875 -257.562)"/>
</svg>
