<svg xmlns="http://www.w3.org/2000/svg" width="85.687" height="85.719" viewBox="0 0 85.687 85.719">
  <metadata><?xpacket begin="﻿" id="W5M0MpCehiHzreSzNTczkc9d"?>
<x:xmpmeta xmlns:x="adobe:ns:meta/" x:xmptk="Adobe XMP Core 5.6-c138 79.159824, 2016/09/14-01:09:01        ">
   <rdf:RDF xmlns:rdf="http://www.w3.org/1999/02/22-rdf-syntax-ns#">
      <rdf:Description rdf:about=""/>
   </rdf:RDF>
</x:xmpmeta>
                                                                                                    
                                                                                                    
                                                                                                    
                                                                                                    
                                                                                                    
                                                                                                    
                                                                                                    
                                                                                                    
                                                                                                    
                                                                                                    
                                                                                                    
                                                                                                    
                                                                                                    
                                                                                                    
                                                                                                    
                                                                                                    
                                                                                                    
                                                                                                    
                                                                                                    
                                                                                                    
                           
<?xpacket end="w"?></metadata>
<defs>
    <style>
      .cls-1 {
        fill: #333;
        fill-rule: evenodd;
      }
    </style>
  </defs>
  <path id="in" class="cls-1" d="M525.085,290.6h12.89v38.728h-12.89V290.6Zm11.719-7.171a7.343,7.343,0,0,1-5.3,1.926h-0.056a7.09,7.09,0,0,1-5.161-1.926,6.384,6.384,0,0,1-1.981-4.771,6.276,6.276,0,0,1,2.036-4.8,7.432,7.432,0,0,1,5.274-1.9,7.137,7.137,0,0,1,5.19,1.9,6.6,6.6,0,0,1,2.008,4.8A6.342,6.342,0,0,1,536.8,283.426Zm34.654,25.2q0-8.762-6.474-8.762a6.317,6.317,0,0,0-4.129,1.368,8.617,8.617,0,0,0-2.511,3.32,9.218,9.218,0,0,0-.391,3.125v21.652H545.062q0.168-35.045,0-38.728h12.891v5.636h-0.111A12.974,12.974,0,0,1,569.5,289.7a13.971,13.971,0,0,1,10.771,4.409q4.073,4.409,4.073,13v22.21h-12.89v-20.7Zm21.4-46.345a15.479,15.479,0,0,0-11.356-4.716H527.931a16.1,16.1,0,0,0-16.072,16.072V327.2a16.1,16.1,0,0,0,16.072,16.072H581.5A16.1,16.1,0,0,0,597.574,327.2V273.633A15.479,15.479,0,0,0,592.858,262.277Z" transform="translate(-511.875 -257.562)"/>
</svg>
