<svg xmlns="http://www.w3.org/2000/svg" width="85.687" height="85.719" viewBox="0 0 85.687 85.719">
  <metadata><?xpacket begin="﻿" id="W5M0MpCehiHzreSzNTczkc9d"?>
<x:xmpmeta xmlns:x="adobe:ns:meta/" x:xmptk="Adobe XMP Core 5.6-c138 79.159824, 2016/09/14-01:09:01        ">
   <rdf:RDF xmlns:rdf="http://www.w3.org/1999/02/22-rdf-syntax-ns#">
      <rdf:Description rdf:about=""/>
   </rdf:RDF>
</x:xmpmeta>
                                                                                                    
                                                                                                    
                                                                                                    
                                                                                                    
                                                                                                    
                                                                                                    
                                                                                                    
                                                                                                    
                                                                                                    
                                                                                                    
                                                                                                    
                                                                                                    
                                                                                                    
                                                                                                    
                                                                                                    
                                                                                                    
                                                                                                    
                                                                                                    
                                                                                                    
                                                                                                    
                           
<?xpacket end="w"?></metadata>
<defs>
    <style>
      .cls-1 {
        fill: #333;
        fill-rule: evenodd;
      }
    </style>
  </defs>
  <path id="tw" class="cls-1" d="M312.429,290.541q0.054,0.5.055,1.507a33.769,33.769,0,0,1-5.552,18.443,35.2,35.2,0,0,1-6.724,7.645,30.2,30.2,0,0,1-9.375,5.3,34.172,34.172,0,0,1-11.719,1.981,32.873,32.873,0,0,1-17.969-5.246,22.408,22.408,0,0,0,2.79.167,23.159,23.159,0,0,0,14.565-5.022,11.129,11.129,0,0,1-6.78-2.344,11.911,11.911,0,0,1-4.158-5.8,15.678,15.678,0,0,0,2.177.223,10.877,10.877,0,0,0,2.846-.446,11.722,11.722,0,0,1-6.864-4.046,11.142,11.142,0,0,1-2.79-7.45V295.34a13.782,13.782,0,0,0,5.58,1.451,11.048,11.048,0,0,1-5.078-9.765,11.611,11.611,0,0,1,1.618-5.916,33.538,33.538,0,0,0,24.219,12.277,10.7,10.7,0,0,1-.279-2.678A11.718,11.718,0,0,1,300.71,278.99a11.141,11.141,0,0,1,8.538,3.683,23.278,23.278,0,0,0,7.477-2.846,11.387,11.387,0,0,1-5.189,6.529,24.841,24.841,0,0,0,6.752-1.9,22.79,22.79,0,0,1-5.859,6.082h0Zm15.429-28.264a15.479,15.479,0,0,0-11.356-4.716H262.931a16.1,16.1,0,0,0-16.072,16.072V327.2a16.1,16.1,0,0,0,16.072,16.072H316.5A16.1,16.1,0,0,0,332.574,327.2V273.633A15.479,15.479,0,0,0,327.858,262.277Z" transform="translate(-246.875 -257.562)"/>
</svg>
